<svg xmlns="http://www.w3.org/2000/svg" xmlns:xlink="http://www.w3.org/1999/xlink" preserveAspectRatio="xMidYMid" width="68" height="25" viewBox="0 0 68 25">
  <defs>
    <style>
      .cls-1 {
        fill: #000;
        fill-rule: evenodd;
      }
    </style>
  </defs>
  <path d="M63.683,19.191 C61.566,21.824 58.339,23.141 54.003,23.141 C52.183,23.141 50.132,22.980 47.851,22.660 L49.478,20.926 C49.876,21.076 50.430,21.211 51.140,21.330 C51.717,20.978 52.111,20.530 52.322,19.987 C52.533,19.444 52.728,18.378 52.907,16.789 L53.876,8.047 C50.344,8.462 48.577,9.741 48.577,11.885 C48.577,12.527 48.749,13.196 49.093,13.892 L47.195,15.676 C47.023,15.293 46.937,14.727 46.937,13.977 C46.937,11.633 47.849,9.842 49.673,8.604 C51.497,7.365 54.128,6.746 57.566,6.746 C63.238,6.746 66.073,8.719 66.073,12.664 C66.073,15.024 65.277,17.199 63.683,19.191 ZM56.180,7.777 L55.792,7.777 L54.817,16.583 L54.700,17.685 C54.582,18.709 54.364,19.455 54.043,19.924 C53.723,20.393 53.094,20.901 52.157,21.448 C53.868,21.686 55.466,21.805 56.951,21.805 C58.335,21.805 59.404,21.611 60.159,21.224 C60.913,20.837 61.650,20.104 62.369,19.025 C63.378,17.524 63.882,15.839 63.882,13.970 C63.882,9.842 61.315,7.777 56.180,7.777 ZM46.089,2.867 C44.877,2.867 43.955,3.424 43.325,4.537 C42.695,5.650 42.204,7.590 41.852,10.355 L40.623,20.281 L39.135,23.328 C38.776,21.891 38.393,20.797 37.986,20.047 C37.580,19.297 36.771,18.195 35.559,16.742 L34.656,15.652 C33.269,13.973 32.288,12.474 31.711,11.156 L31.129,16.414 L30.988,17.680 C30.863,18.727 30.662,19.494 30.385,19.982 C30.108,20.471 29.555,21.024 28.727,21.641 L31.316,21.875 L29.923,23.234 L24.825,22.977 L26.337,21.523 L27.638,21.641 C28.231,21.211 28.641,20.746 28.868,20.246 C29.095,19.746 29.274,18.918 29.407,17.762 L29.513,16.742 L30.411,8.633 L29.861,8.633 C26.613,8.633 24.990,9.707 24.990,11.855 C24.990,12.527 25.173,13.203 25.541,13.883 L23.642,15.711 C23.455,15.102 23.361,14.492 23.361,13.883 C23.361,11.961 24.089,10.357 25.546,9.072 C27.004,7.787 28.826,7.145 31.014,7.145 C31.318,7.145 31.604,7.156 31.869,7.180 C32.166,7.203 32.354,7.215 32.432,7.215 L32.561,7.215 C32.529,7.488 32.514,7.684 32.514,7.801 C32.514,9.410 33.554,11.457 35.636,13.941 L36.513,14.973 L37.285,15.898 C38.103,16.875 38.750,17.773 39.226,18.594 L40.002,12.230 C40.495,8.348 41.400,5.625 42.716,4.062 C44.219,2.281 45.879,1.391 47.696,1.391 C48.377,1.391 49.051,1.516 49.716,1.766 L47.979,3.488 C47.267,3.074 46.637,2.867 46.089,2.867 ZM19.074,9.896 C18.879,10.359 18.629,10.590 18.324,10.590 C18.277,10.590 18.223,10.586 18.160,10.578 C18.246,10.188 18.289,9.875 18.289,9.641 C18.289,9.125 18.017,8.803 17.473,8.674 C16.929,8.545 15.573,8.480 13.405,8.480 L12.266,8.480 L11.636,14.164 L13.929,14.164 C15.254,14.164 16.430,14.102 17.457,13.977 C16.563,15.047 15.662,15.582 14.753,15.582 C14.243,15.582 13.522,15.543 12.590,15.465 C12.205,15.441 11.935,15.430 11.778,15.430 L11.496,15.430 L11.384,16.445 C11.220,17.924 10.960,18.975 10.604,19.597 C10.249,20.220 9.552,20.846 8.513,21.477 L11.079,21.676 L12.124,21.770 C12.859,21.824 13.740,21.852 14.765,21.852 C16.495,21.852 17.935,21.297 19.086,20.188 C19.219,20.336 19.285,20.477 19.285,20.609 C19.285,20.828 18.867,21.277 18.031,21.957 C16.812,22.949 15.480,23.445 14.035,23.445 C12.699,23.445 10.777,23.330 8.270,23.101 L3.898,22.697 C3.750,22.689 3.223,22.657 2.316,22.602 L4.459,20.984 C5.232,21.117 6.161,21.234 7.247,21.336 C8.012,21.039 8.527,20.618 8.793,20.071 C9.058,19.525 9.281,18.427 9.460,16.777 L10.379,8.480 L9.970,8.480 C8.458,8.480 7.273,8.791 6.415,9.412 C5.558,10.033 5.129,10.891 5.129,11.984 C5.129,12.617 5.309,13.273 5.668,13.953 L3.770,15.781 C3.582,15.156 3.488,14.562 3.488,14.000 C3.488,11.813 4.398,10.043 6.219,8.691 C7.547,7.707 9.437,7.215 11.891,7.215 L15.758,7.215 C17.211,7.215 18.695,7.160 20.211,7.051 L19.262,9.461 L19.074,9.896 Z" class="cls-1"/>
</svg>
